<svg width="32" height="32" viewBox="0 0 32 32" fill="none" xmlns="http://www.w3.org/2000/svg">
<rect width="32" height="32" rx="10" fill="#1B4AF1"/>
<g clip-path="url(#clip0_1_31)">
<path d="M13 9H11C10.4696 9 9.96086 9.21071 9.58579 9.58579C9.21071 9.96086 9 10.4696 9 11V23C9 23.5304 9.21071 24.0391 9.58579 24.4142C9.96086 24.7893 10.4696 25 11 25H21C21.5304 25 22.0391 24.7893 22.4142 24.4142C22.7893 24.0391 23 23.5304 23 23V11C23 10.4696 22.7893 9.96086 22.4142 9.58579C22.0391 9.21071 21.5304 9 21 9H19" stroke="white" stroke-width="2" stroke-linecap="round" stroke-linejoin="round"/>
<path d="M13 9C13 8.46957 13.2107 7.96086 13.5858 7.58579C13.9609 7.21071 14.4696 7 15 7H17C17.5304 7 18.0391 7.21071 18.4142 7.58579C18.7893 7.96086 19 8.46957 19 9C19 9.53043 18.7893 10.0391 18.4142 10.4142C18.0391 10.7893 17.5304 11 17 11H15C14.4696 11 13.9609 10.7893 13.5858 10.4142C13.2107 10.0391 13 9.53043 13 9Z" stroke="white" stroke-width="2" stroke-linecap="round" stroke-linejoin="round"/>
<path d="M13 21V17" stroke="white" stroke-width="2" stroke-linecap="round" stroke-linejoin="round"/>
<path d="M16 21V20" stroke="white" stroke-width="2" stroke-linecap="round" stroke-linejoin="round"/>
<path d="M19 21V19" stroke="white" stroke-width="2" stroke-linecap="round" stroke-linejoin="round"/>
<path d="M16 21V20" stroke="white" stroke-width="2" stroke-linecap="round" stroke-linejoin="round"/>
</g>
<defs>
<clipPath id="clip0_1_31">
<rect width="24" height="24" fill="white" transform="translate(4 4)"/>
</clipPath>
</defs>
</svg>
