<svg width="64" height="64" viewBox="0 0 64 64" fill="none" xmlns="http://www.w3.org/2000/svg">
<g clip-path="url(#clip0_5_103)">
<path d="M52 33.5253L32 53.3333L12 33.5253C10.6808 32.2416 9.6417 30.6987 8.94812 28.9937C8.25453 27.2887 7.92149 25.4585 7.96996 23.6185C8.01842 21.7784 8.44736 19.9683 9.22974 18.3022C10.0121 16.6361 11.131 15.15 12.516 13.9375C13.9009 12.7251 15.5219 11.8125 17.2768 11.2573C19.0318 10.702 20.8827 10.5162 22.713 10.7115C24.5433 10.9067 26.3133 11.4788 27.9117 12.3917C29.51 13.3047 30.902 14.5387 32 16.016C33.1027 14.5494 34.4964 13.3262 36.0936 12.4229C37.6908 11.5197 39.4573 10.9558 41.2825 10.7667C43.1076 10.5776 44.9522 10.7672 46.7007 11.3237C48.4492 11.8802 50.0641 12.7916 51.4441 14.001C52.8242 15.2103 53.9398 16.6914 54.7211 18.3517C55.5024 20.012 55.9326 21.8157 55.9848 23.6499C56.037 25.4841 55.71 27.3093 55.0244 29.0113C54.3387 30.7133 53.3091 32.2555 52 33.5413" stroke="#FF0000" stroke-width="4" stroke-linecap="round" stroke-linejoin="round"/>
<path d="M32 16L23.2187 24.7813C22.7187 25.2814 22.4379 25.9596 22.4379 26.6667C22.4379 27.3738 22.7187 28.0519 23.2187 28.552L24.6667 30C26.5067 31.84 29.4933 31.84 31.3333 30L34 27.3333C35.5913 25.742 37.7496 24.8481 40 24.8481C42.2504 24.8481 44.4087 25.742 46 27.3333L52 33.3333" stroke="#FF0000" stroke-width="4" stroke-linecap="round" stroke-linejoin="round"/>
<path d="M33.3333 41.3334L38.6667 46.6667" stroke="#FF0000" stroke-width="4" stroke-linecap="round" stroke-linejoin="round"/>
<path d="M40 34.6666L45.3333 40" stroke="#FF0000" stroke-width="4" stroke-linecap="round" stroke-linejoin="round"/>
</g>
<defs>
<clipPath id="clip0_5_103">
<rect width="64" height="64" fill="white"/>
</clipPath>
</defs>
</svg>
