<svg width="64" height="64" viewBox="0 0 64 64" fill="none" xmlns="http://www.w3.org/2000/svg">
<g clip-path="url(#clip0_5_110)">
<path d="M13.3333 45.3333C13.3333 46.7478 13.8952 48.1044 14.8954 49.1046C15.8956 50.1048 17.2522 50.6667 18.6667 50.6667C20.0811 50.6667 21.4377 50.1048 22.4379 49.1046C23.4381 48.1044 24 46.7478 24 45.3333C24 43.9188 23.4381 42.5623 22.4379 41.5621C21.4377 40.5619 20.0811 40 18.6667 40C17.2522 40 15.8956 40.5619 14.8954 41.5621C13.8952 42.5623 13.3333 43.9188 13.3333 45.3333Z" stroke="#1B4AF1" stroke-width="4" stroke-linecap="round" stroke-linejoin="round"/>
<path d="M40 45.3333C40 46.7478 40.5619 48.1044 41.5621 49.1046C42.5623 50.1048 43.9188 50.6667 45.3333 50.6667C46.7478 50.6667 48.1044 50.1048 49.1046 49.1046C50.1048 48.1044 50.6667 46.7478 50.6667 45.3333C50.6667 43.9188 50.1048 42.5623 49.1046 41.5621C48.1044 40.5619 46.7478 40 45.3333 40C43.9188 40 42.5623 40.5619 41.5621 41.5621C40.5619 42.5623 40 43.9188 40 45.3333Z" stroke="#1B4AF1" stroke-width="4" stroke-linecap="round" stroke-linejoin="round"/>
<path d="M13.3333 45.3334H8V16C8 15.2928 8.28095 14.6145 8.78105 14.1144C9.28115 13.6143 9.95942 13.3334 10.6667 13.3334H34.6667V45.3334M24 45.3334H40M50.6667 45.3334H56V29.3334M56 29.3334H34.6667M56 29.3334L48 16H34.6667" stroke="#1B4AF1" stroke-width="4" stroke-linecap="round" stroke-linejoin="round"/>
<path d="M16 26.6667H26.6667M21.3333 21.3334V32" stroke="#1B4AF1" stroke-width="4" stroke-linecap="round" stroke-linejoin="round"/>
</g>
<defs>
<clipPath id="clip0_5_110">
<rect width="64" height="64" fill="white"/>
</clipPath>
</defs>
</svg>
