<svg width="64" height="64" viewBox="0 0 64 64" fill="none" xmlns="http://www.w3.org/2000/svg">
<g clip-path="url(#clip0_5_117)">
<path d="M34.6667 8C35.3739 8 36.0522 8.28095 36.5523 8.78105C37.0524 9.28115 37.3333 9.95942 37.3333 10.6667V22.76L47.808 16.7147C48.4205 16.3611 49.1483 16.2652 49.8315 16.4483C50.5146 16.6313 51.097 17.0782 51.4507 17.6907L54.1173 22.3093C54.4709 22.9218 54.5668 23.6497 54.3837 24.3328C54.2007 25.0159 53.7538 25.5984 53.1413 25.952L42.6693 32L53.1413 38.0507C53.7538 38.4043 54.2007 38.9867 54.3837 39.6699C54.5668 40.353 54.4709 41.0809 54.1173 41.6933L51.4507 46.312C51.097 46.9245 50.5146 47.3714 49.8315 47.5544C49.1483 47.7374 48.4205 47.6416 47.808 47.288L37.3333 41.2373V53.3333C37.3333 54.0406 37.0524 54.7189 36.5523 55.219C36.0522 55.7191 35.3739 56 34.6667 56H29.3333C28.6261 56 27.9478 55.7191 27.4477 55.219C26.9476 54.7189 26.6667 54.0406 26.6667 53.3333V41.2373L16.192 47.2853C15.5795 47.6389 14.8517 47.7348 14.1685 47.5517C13.4854 47.3687 12.903 46.9218 12.5493 46.3093L9.88267 41.6907C9.52906 41.0782 9.43324 40.3503 9.61627 39.6672C9.7993 38.9841 10.2462 38.4016 10.8587 38.048L21.3307 32L10.8587 25.952C10.2462 25.5984 9.7993 25.0159 9.61627 24.3328C9.43324 23.6497 9.52906 22.9218 9.88267 22.3093L12.5493 17.6907C12.903 17.0782 13.4854 16.6313 14.1685 16.4483C14.8517 16.2652 15.5795 16.3611 16.192 16.7147L26.6667 22.76V10.6667C26.6667 9.95942 26.9476 9.28115 27.4477 8.78105C27.9478 8.28095 28.6261 8 29.3333 8H34.6667Z" stroke="#FF0000" stroke-width="4" stroke-linecap="round" stroke-linejoin="round"/>
</g>
<defs>
<clipPath id="clip0_5_117">
<rect width="64" height="64" fill="white"/>
</clipPath>
</defs>
</svg>
