<svg width="64" height="64" viewBox="0 0 64 64" fill="none" xmlns="http://www.w3.org/2000/svg">
<g clip-path="url(#clip0_5_98)">
<path d="M24 13.3334H18.6667C17.2522 13.3334 15.8956 13.8953 14.8954 14.8955C13.8952 15.8957 13.3333 17.2522 13.3333 18.6667V50.6667C13.3333 52.0812 13.8952 53.4377 14.8954 54.4379C15.8956 55.4381 17.2522 56 18.6667 56H45.3333C46.7478 56 48.1044 55.4381 49.1046 54.4379C50.1048 53.4377 50.6667 52.0812 50.6667 50.6667V18.6667C50.6667 17.2522 50.1048 15.8957 49.1046 14.8955C48.1044 13.8953 46.7478 13.3334 45.3333 13.3334H40" stroke="black" stroke-width="4" stroke-linecap="round" stroke-linejoin="round"/>
<path d="M24 13.3333C24 11.9188 24.5619 10.5623 25.5621 9.5621C26.5623 8.5619 27.9188 8 29.3333 8H34.6667C36.0812 8 37.4377 8.5619 38.4379 9.5621C39.4381 10.5623 40 11.9188 40 13.3333C40 14.7478 39.4381 16.1044 38.4379 17.1046C37.4377 18.1048 36.0812 18.6667 34.6667 18.6667H29.3333C27.9188 18.6667 26.5623 18.1048 25.5621 17.1046C24.5619 16.1044 24 14.7478 24 13.3333Z" stroke="black" stroke-width="4" stroke-linecap="round" stroke-linejoin="round"/>
<path d="M31.9813 44.6666L39.3067 37.16C40.2128 36.2164 40.7188 34.9589 40.7188 33.6506C40.7188 32.3424 40.2128 31.0849 39.3067 30.1413C38.865 29.6816 38.335 29.3158 37.7484 29.0659C37.1619 28.816 36.5309 28.6872 35.8933 28.6872C35.2558 28.6872 34.6248 28.816 34.0383 29.0659C33.4517 29.3158 32.9217 29.6816 32.48 30.1413L31.992 30.6426L31.504 30.1386C31.0623 29.6789 30.5323 29.3131 29.9458 29.0632C29.3592 28.8134 28.7282 28.6846 28.0907 28.6846C27.4531 28.6846 26.8222 28.8134 26.2356 29.0632C25.6491 29.3131 25.119 29.6789 24.6773 30.1386C23.7706 31.0819 23.2642 32.3396 23.2642 33.648C23.2642 34.9564 23.7706 36.214 24.6773 37.1573L31.9787 44.6906L31.9813 44.6666Z" fill="#FF0000" stroke="#FF0000" stroke-width="4" stroke-linecap="round" stroke-linejoin="round"/>
</g>
<defs>
<clipPath id="clip0_5_98">
<rect width="64" height="64" fill="white"/>
</clipPath>
</defs>
</svg>
