<svg width="32" height="32" viewBox="0 0 32 32" fill="none" xmlns="http://www.w3.org/2000/svg">
<rect width="32" height="32" rx="10" fill="#1B4AF1"/>
<g clip-path="url(#clip0_7_182)">
<path d="M7 16H8M16 7V8M24 16H25M9.6 9.6L10.3 10.3M22.4 9.6L21.7 10.3" stroke="white" stroke-width="2" stroke-linecap="round" stroke-linejoin="round"/>
<path d="M13 20C12.1605 19.3704 11.5403 18.4925 11.2274 17.4908C10.9145 16.4892 10.9247 15.4144 11.2566 14.4189C11.5884 13.4233 12.2251 12.5574 13.0764 11.9438C13.9278 11.3302 14.9506 11 16 11C17.0494 11 18.0722 11.3302 18.9236 11.9438C19.7749 12.5574 20.4116 13.4233 20.7434 14.4189C21.0753 15.4144 21.0855 16.4892 20.7726 17.4908C20.4597 18.4925 19.8395 19.3704 19 20C18.6096 20.3865 18.3156 20.8594 18.1419 21.3806C17.9681 21.9018 17.9195 22.4566 18 23C18 23.5304 17.7893 24.0391 17.4142 24.4142C17.0391 24.7893 16.5304 25 16 25C15.4696 25 14.9609 24.7893 14.5858 24.4142C14.2107 24.0391 14 23.5304 14 23C14.0805 22.4566 14.0319 21.9018 13.8581 21.3806C13.6844 20.8594 13.3904 20.3865 13 20Z" stroke="white" stroke-width="2" stroke-linecap="round" stroke-linejoin="round"/>
<path d="M13.7 21H18.3" stroke="white" stroke-width="2" stroke-linecap="round" stroke-linejoin="round"/>
</g>
<defs>
<clipPath id="clip0_7_182">
<rect width="24" height="24" fill="white" transform="translate(4 4)"/>
</clipPath>
</defs>
</svg>
