<svg width="32" height="32" viewBox="0 0 32 32" fill="none" xmlns="http://www.w3.org/2000/svg">
<rect width="32" height="32" rx="10" fill="#1B4AF1"/>
<g clip-path="url(#clip0_1_11)">
<path d="M8.50001 16.5L16.5 8.49999C17.4283 7.57174 18.6873 7.05025 20 7.05025C21.3128 7.05025 22.5718 7.57174 23.5 8.49999C24.4283 9.42825 24.9498 10.6872 24.9498 12C24.9498 13.3127 24.4283 14.5717 23.5 15.5L15.5 23.5C14.5718 24.4283 13.3128 24.9497 12 24.9497C10.6873 24.9497 9.42827 24.4283 8.50001 23.5C7.57175 22.5717 7.05026 21.3127 7.05026 20C7.05026 18.6872 7.57175 17.4283 8.50001 16.5Z" stroke="white" stroke-width="2" stroke-linecap="round" stroke-linejoin="round"/>
<path d="M12.5 12.5L19.5 19.5" stroke="white" stroke-width="2" stroke-linecap="round" stroke-linejoin="round"/>
</g>
<defs>
<clipPath id="clip0_1_11">
<rect x="4" y="4" width="24" height="24" rx="10" fill="white"/>
</clipPath>
</defs>
</svg>
